<svg xmlns="http://www.w3.org/2000/svg" width="384" height="384" viewBox="0 0 384 384"><defs>
  <linearGradient id="wood" x2=".2" y2="1"><stop stop-color="#f3c37c"/><stop offset=".52" stop-color="#df9f56"/><stop offset="1" stop-color="#b77736"/></linearGradient>
  <linearGradient id="woodTop" x2=".2" y2="1"><stop stop-color="#ffe0a5"/><stop offset=".7" stop-color="#edbd7d"/><stop offset="1" stop-color="#dea365"/></linearGradient>
  <linearGradient id="woodDark" x2="1" y2=".4"><stop stop-color="#ab692f"/><stop offset=".5" stop-color="#ce8e45"/><stop offset="1" stop-color="#8f552a"/></linearGradient>
  <radialGradient id="cream" cx=".35" cy=".25" r=".9"><stop stop-color="#fffdf0"/><stop offset=".68" stop-color="#fff0d9"/><stop offset="1" stop-color="#edd6b7"/></radialGradient>
  <radialGradient id="bunny" cx=".3" cy=".2" r=".9"><stop stop-color="#fffaf0"/><stop offset=".72" stop-color="#fff0dc"/><stop offset="1" stop-color="#efc8ac"/></radialGradient>
  <radialGradient id="fox" cx=".3" cy=".2" r=".9"><stop stop-color="#ffca79"/><stop offset=".6" stop-color="#ffa847"/><stop offset="1" stop-color="#e68528"/></radialGradient>
  <radialGradient id="bear" cx=".3" cy=".2" r=".9"><stop stop-color="#eac18a"/><stop offset=".6" stop-color="#dca46b"/><stop offset="1" stop-color="#bc7848"/></radialGradient>
  <radialGradient id="cat" cx=".3" cy=".2" r=".9"><stop stop-color="#ebd2b2"/><stop offset=".65" stop-color="#cfa98a"/><stop offset="1" stop-color="#af856c"/></radialGradient>
  <radialGradient id="ink" cx=".25" cy=".1" r="1"><stop stop-color="#695644"/><stop offset="1" stop-color="#2f3328"/></radialGradient>
  <radialGradient id="leaf" cx=".25" cy=".2" r=".9"><stop stop-color="#bed272"/><stop offset=".5" stop-color="#90ad58"/><stop offset="1" stop-color="#537b3e"/></radialGradient>
  <linearGradient id="sage" x2=".4" y2="1"><stop stop-color="#bdd4a1"/><stop offset=".55" stop-color="#99b47c"/><stop offset="1" stop-color="#6f9060"/></linearGradient>
  <linearGradient id="mint" x2=".3" y2="1"><stop stop-color="#b6d5c1"/><stop offset="1" stop-color="#6e9b83"/></linearGradient>
  <linearGradient id="coral" x2=".3" y2="1"><stop stop-color="#ffd2ad"/><stop offset="1" stop-color="#ec9980"/></linearGradient>
  <linearGradient id="ceramic" x2=".4" y2="1"><stop stop-color="#fcf1df"/><stop offset="1" stop-color="#d6c3a7"/></linearGradient>
  <linearGradient id="metal" x2="1" y2=".3"><stop stop-color="#e8eee3"/><stop offset=".45" stop-color="#c9d0c4"/><stop offset="1" stop-color="#96a79a"/></linearGradient>
  <linearGradient id="terracotta" x2=".8" y2="1"><stop stop-color="#e8b475"/><stop offset=".45" stop-color="#cc894f"/><stop offset="1" stop-color="#a66836"/></linearGradient>
  <radialGradient id="skin" cx=".25" cy=".2" r=".9"><stop stop-color="#ffdcaa"/><stop offset=".7" stop-color="#f4b77b"/><stop offset="1" stop-color="#dc9562"/></radialGradient>
  <linearGradient id="hair" x2=".5" y2="1"><stop stop-color="#947046"/><stop offset=".55" stop-color="#6a4a2f"/><stop offset="1" stop-color="#4b3b29"/></linearGradient>
  <radialGradient id="tomato" cx=".3" cy=".2" r=".9"><stop stop-color="#ffad70"/><stop offset=".45" stop-color="#ee7046"/><stop offset="1" stop-color="#cd4c2e"/></radialGradient>
  <linearGradient id="broth" x2=".2" y2="1"><stop stop-color="#f58a51"/><stop offset="1" stop-color="#dc552f"/></linearGradient>
  <linearGradient id="noodle" x2=".3" y2="1"><stop stop-color="#fff2af"/><stop offset=".45" stop-color="#f6cf65"/><stop offset="1" stop-color="#d99c38"/></linearGradient>
  <linearGradient id="berry" x2=".3" y2="1"><stop stop-color="#ee8e82"/><stop offset=".35" stop-color="#d45151"/><stop offset="1" stop-color="#a93943"/></linearGradient>
  <linearGradient id="juice" x2=".1" y2="1"><stop stop-color="#ffc667"/><stop offset="1" stop-color="#e89638"/></linearGradient>
</defs><g stroke="#815936" stroke-width="2.3" stroke-linecap="round" stroke-linejoin="round"><g transform="scale(1.2)"><g transform="translate(0 0)"><g transform="translate(0 -3)"><path d="M16 151q11 91 144 95 132-3 144-95" fill="url(#ceramic)" stroke="#748561" stroke-width="3.6"/><path d="M35 177q19 49 81 57" fill="none" stroke="#fff4da" stroke-width="5" opacity=".8"/><ellipse cx="160" cy="148" rx="146" ry="68" fill="url(#cream)" stroke="#587a53" stroke-width="3.6"/><ellipse cx="160" cy="147" rx="133" ry="57" fill="#f5e5c6" stroke="#97aa7b" stroke-width="2"/><ellipse cx="160" cy="158" rx="112" ry="37" fill="url(#broth)" stroke="#cc6239" stroke-width="2"/><path d="M115 159q-7-17 22-20 40-4 48 14 1 14-24 13" fill="none" stroke="#ffebc1" stroke-width="5"/><path d="m85 158 22-5 6 17-22 6Zm113 7 20-5 7 16-22 7Z" fill="url(#woodTop)" stroke="#b88136" stroke-width="2"/><g transform="translate(182 151) rotate(-15) scale(0.8)"><path d="M-22 0Q-14-20 20-9 20 10-22 0Z" fill="url(#leaf)" stroke="#587b3c" stroke-width="2"/><path d="M-17-1 11-7" stroke="#c1d589" stroke-width="1.5" opacity=".9"/></g></g></g></g></g></svg>