<svg xmlns="http://www.w3.org/2000/svg" width="110" height="108" viewBox="80 0 110 108"><defs>
  <linearGradient id="wood" x2=".2" y2="1"><stop stop-color="#f3c37c"/><stop offset=".52" stop-color="#df9f56"/><stop offset="1" stop-color="#b77736"/></linearGradient>
  <linearGradient id="woodTop" x2=".2" y2="1"><stop stop-color="#ffe0a5"/><stop offset=".7" stop-color="#edbd7d"/><stop offset="1" stop-color="#dea365"/></linearGradient>
  <linearGradient id="woodDark" x2="1" y2=".4"><stop stop-color="#ab692f"/><stop offset=".5" stop-color="#ce8e45"/><stop offset="1" stop-color="#8f552a"/></linearGradient>
  <radialGradient id="cream" cx=".35" cy=".25" r=".9"><stop stop-color="#fffdf0"/><stop offset=".68" stop-color="#fff0d9"/><stop offset="1" stop-color="#edd6b7"/></radialGradient>
  <radialGradient id="bunny" cx=".3" cy=".2" r=".9"><stop stop-color="#fffaf0"/><stop offset=".72" stop-color="#fff0dc"/><stop offset="1" stop-color="#efc8ac"/></radialGradient>
  <radialGradient id="fox" cx=".3" cy=".2" r=".9"><stop stop-color="#ffca79"/><stop offset=".6" stop-color="#ffa847"/><stop offset="1" stop-color="#e68528"/></radialGradient>
  <radialGradient id="bear" cx=".3" cy=".2" r=".9"><stop stop-color="#eac18a"/><stop offset=".6" stop-color="#dca46b"/><stop offset="1" stop-color="#bc7848"/></radialGradient>
  <radialGradient id="cat" cx=".3" cy=".2" r=".9"><stop stop-color="#ebd2b2"/><stop offset=".65" stop-color="#cfa98a"/><stop offset="1" stop-color="#af856c"/></radialGradient>
  <radialGradient id="ink" cx=".25" cy=".1" r="1"><stop stop-color="#695644"/><stop offset="1" stop-color="#2f3328"/></radialGradient>
  <radialGradient id="leaf" cx=".25" cy=".2" r=".9"><stop stop-color="#bed272"/><stop offset=".5" stop-color="#90ad58"/><stop offset="1" stop-color="#537b3e"/></radialGradient>
  <linearGradient id="sage" x2=".4" y2="1"><stop stop-color="#bdd4a1"/><stop offset=".55" stop-color="#99b47c"/><stop offset="1" stop-color="#6f9060"/></linearGradient>
  <linearGradient id="mint" x2=".3" y2="1"><stop stop-color="#b6d5c1"/><stop offset="1" stop-color="#6e9b83"/></linearGradient>
  <linearGradient id="coral" x2=".3" y2="1"><stop stop-color="#ffd2ad"/><stop offset="1" stop-color="#ec9980"/></linearGradient>
  <linearGradient id="ceramic" x2=".4" y2="1"><stop stop-color="#fcf1df"/><stop offset="1" stop-color="#d6c3a7"/></linearGradient>
  <linearGradient id="metal" x2="1" y2=".3"><stop stop-color="#e8eee3"/><stop offset=".45" stop-color="#c9d0c4"/><stop offset="1" stop-color="#96a79a"/></linearGradient>
  <linearGradient id="terracotta" x2=".8" y2="1"><stop stop-color="#e8b475"/><stop offset=".45" stop-color="#cc894f"/><stop offset="1" stop-color="#a66836"/></linearGradient>
  <radialGradient id="skin" cx=".25" cy=".2" r=".9"><stop stop-color="#ffdcaa"/><stop offset=".7" stop-color="#f4b77b"/><stop offset="1" stop-color="#dc9562"/></radialGradient>
  <linearGradient id="hair" x2=".5" y2="1"><stop stop-color="#947046"/><stop offset=".55" stop-color="#6a4a2f"/><stop offset="1" stop-color="#4b3b29"/></linearGradient>
  <radialGradient id="tomato" cx=".3" cy=".2" r=".9"><stop stop-color="#ffad70"/><stop offset=".45" stop-color="#ee7046"/><stop offset="1" stop-color="#cd4c2e"/></radialGradient>
  <linearGradient id="broth" x2=".2" y2="1"><stop stop-color="#f58a51"/><stop offset="1" stop-color="#dc552f"/></linearGradient>
  <linearGradient id="noodle" x2=".3" y2="1"><stop stop-color="#fff2af"/><stop offset=".45" stop-color="#f6cf65"/><stop offset="1" stop-color="#d99c38"/></linearGradient>
  <linearGradient id="berry" x2=".3" y2="1"><stop stop-color="#ee8e82"/><stop offset=".35" stop-color="#d45151"/><stop offset="1" stop-color="#a93943"/></linearGradient>
  <linearGradient id="juice" x2=".1" y2="1"><stop stop-color="#ffc667"/><stop offset="1" stop-color="#e89638"/></linearGradient>
</defs><g stroke="#815936" stroke-width="2.3" stroke-linecap="round" stroke-linejoin="round"><path d="M98 51Q85 36 95 15q3-7 10-1l21 20M143 34l23-22q7-6 11 3 8 21-5 38" fill="url(#fox)" stroke="#aa672f" stroke-width="2.8"/><path d="M99 22q-6 15 4 24l14-10ZM168 21l-17 16 15 9q7-14 2-25" fill="#ffe6c8" stroke="#e89463" stroke-width="1.6"/><path d="M95 55q7-23 40-23t40 23l3 18 8 8-13 2q-6 20-38 20t-38-20l-13-2 8-8Z" fill="url(#fox)" stroke="#a8662d" stroke-width="2.6"/><path d="M94 76q12-2 23 6 18-13 36 0 12-8 25-6-5 25-43 26-35-2-41-26Z" fill="#fff3da" stroke="none"/><path d="M106 45q15-10 30-9" fill="none" stroke="#ffdb99" stroke-width="3" opacity=".9"/><ellipse cx="105" cy="81" rx="7.4" ry="5.1" fill="#f6a58d" opacity=".92" stroke="none"/><ellipse cx="165" cy="81" rx="7.4" ry="5.1" fill="#f6a58d" opacity=".92" stroke="none"/><path d="M112 71q5-7 10 0M148 71q5-7 10 0" fill="none" stroke="#58432f" stroke-width="2.8"/><path d="M131 78q4-3 8 0l-4 4Z" fill="#574331" stroke="none"/><path d="M128 83q7 5 14 0q-1 13-7 13t-7-13" fill="#78422f" stroke="#754730" stroke-width="1.4"/><path d="M130 92q5-4 10 0" fill="#ee9a84" stroke="none"/></g></svg>