<svg xmlns="http://www.w3.org/2000/svg" width="270" height="210" viewBox="0 0 270 210"><defs>
  <linearGradient id="wood" x2=".2" y2="1"><stop stop-color="#f3c37c"/><stop offset=".52" stop-color="#df9f56"/><stop offset="1" stop-color="#b77736"/></linearGradient>
  <linearGradient id="woodTop" x2=".2" y2="1"><stop stop-color="#ffe0a5"/><stop offset=".7" stop-color="#edbd7d"/><stop offset="1" stop-color="#dea365"/></linearGradient>
  <linearGradient id="woodDark" x2="1" y2=".4"><stop stop-color="#ab692f"/><stop offset=".5" stop-color="#ce8e45"/><stop offset="1" stop-color="#8f552a"/></linearGradient>
  <radialGradient id="cream" cx=".35" cy=".25" r=".9"><stop stop-color="#fffdf0"/><stop offset=".68" stop-color="#fff0d9"/><stop offset="1" stop-color="#edd6b7"/></radialGradient>
  <radialGradient id="bunny" cx=".3" cy=".2" r=".9"><stop stop-color="#fffaf0"/><stop offset=".72" stop-color="#fff0dc"/><stop offset="1" stop-color="#efc8ac"/></radialGradient>
  <radialGradient id="fox" cx=".3" cy=".2" r=".9"><stop stop-color="#ffca79"/><stop offset=".6" stop-color="#ffa847"/><stop offset="1" stop-color="#e68528"/></radialGradient>
  <radialGradient id="bear" cx=".3" cy=".2" r=".9"><stop stop-color="#eac18a"/><stop offset=".6" stop-color="#dca46b"/><stop offset="1" stop-color="#bc7848"/></radialGradient>
  <radialGradient id="cat" cx=".3" cy=".2" r=".9"><stop stop-color="#ebd2b2"/><stop offset=".65" stop-color="#cfa98a"/><stop offset="1" stop-color="#af856c"/></radialGradient>
  <radialGradient id="ink" cx=".25" cy=".1" r="1"><stop stop-color="#695644"/><stop offset="1" stop-color="#2f3328"/></radialGradient>
  <radialGradient id="leaf" cx=".25" cy=".2" r=".9"><stop stop-color="#bed272"/><stop offset=".5" stop-color="#90ad58"/><stop offset="1" stop-color="#537b3e"/></radialGradient>
  <linearGradient id="sage" x2=".4" y2="1"><stop stop-color="#bdd4a1"/><stop offset=".55" stop-color="#99b47c"/><stop offset="1" stop-color="#6f9060"/></linearGradient>
  <linearGradient id="mint" x2=".3" y2="1"><stop stop-color="#b6d5c1"/><stop offset="1" stop-color="#6e9b83"/></linearGradient>
  <linearGradient id="coral" x2=".3" y2="1"><stop stop-color="#ffd2ad"/><stop offset="1" stop-color="#ec9980"/></linearGradient>
  <linearGradient id="ceramic" x2=".4" y2="1"><stop stop-color="#fcf1df"/><stop offset="1" stop-color="#d6c3a7"/></linearGradient>
  <linearGradient id="metal" x2="1" y2=".3"><stop stop-color="#e8eee3"/><stop offset=".45" stop-color="#c9d0c4"/><stop offset="1" stop-color="#96a79a"/></linearGradient>
  <linearGradient id="terracotta" x2=".8" y2="1"><stop stop-color="#e8b475"/><stop offset=".45" stop-color="#cc894f"/><stop offset="1" stop-color="#a66836"/></linearGradient>
  <radialGradient id="skin" cx=".25" cy=".2" r=".9"><stop stop-color="#ffdcaa"/><stop offset=".7" stop-color="#f4b77b"/><stop offset="1" stop-color="#dc9562"/></radialGradient>
  <linearGradient id="hair" x2=".5" y2="1"><stop stop-color="#947046"/><stop offset=".55" stop-color="#6a4a2f"/><stop offset="1" stop-color="#4b3b29"/></linearGradient>
  <radialGradient id="tomato" cx=".3" cy=".2" r=".9"><stop stop-color="#ffad70"/><stop offset=".45" stop-color="#ee7046"/><stop offset="1" stop-color="#cd4c2e"/></radialGradient>
  <linearGradient id="broth" x2=".2" y2="1"><stop stop-color="#f58a51"/><stop offset="1" stop-color="#dc552f"/></linearGradient>
  <linearGradient id="noodle" x2=".3" y2="1"><stop stop-color="#fff2af"/><stop offset=".45" stop-color="#f6cf65"/><stop offset="1" stop-color="#d99c38"/></linearGradient>
  <linearGradient id="berry" x2=".3" y2="1"><stop stop-color="#ee8e82"/><stop offset=".35" stop-color="#d45151"/><stop offset="1" stop-color="#a93943"/></linearGradient>
  <linearGradient id="juice" x2=".1" y2="1"><stop stop-color="#ffc667"/><stop offset="1" stop-color="#e89638"/></linearGradient>
</defs><g stroke="#815936" stroke-width="2.3" stroke-linecap="round" stroke-linejoin="round"><path d="M84 108V80q0-8 9-8h85q9 0 9 8v31" fill="url(#woodDark)" stroke-width="2.6"/><path d="M89 105V83q0-5 6-5h80q6 0 6 5v22" fill="url(#wood)" stroke="#dfa767" stroke-width="2"/><path d="m50 159-9 37q-2 8 10 9 7 0 8-6l7-38M203 161l8 39q2 7 13 4 5-1 3-8l-7-40" fill="url(#woodDark)" stroke-width="2.8"/><path d="m56 169-7 26m168-24 5 24" stroke="#e1a76a" stroke-width="2" opacity=".7"/><ellipse cx="135" cy="146" rx="126" ry="42" fill="url(#woodDark)" stroke="#8c5529" stroke-width="3"/><ellipse cx="135" cy="137" rx="126" ry="42" fill="url(#woodTop)" stroke="#9a6739" stroke-width="3"/><path d="M21 141q6 31 83 40m16 2q88 4 130-31" fill="none" stroke="#f6cd91" stroke-width="2" opacity=".8"/><path d="M32 122q13-13 34-17m139 10q22 8 30 19M31 146q10 10 26 15m159-8q11-3 18-9" fill="none" stroke="#c58b50" stroke-width="1.2" opacity=".5"/><path d="m63 115 127 7-4 38-132-7Z" fill="#e5d4b9" opacity=".4" stroke="none"/><path d="m62 111 127 5-4 39-132-3Z" fill="url(#cream)" stroke="#d3bda0" stroke-width="1.6"/><path d="m60 116 124 5m-125 3 124 5" stroke="#f2e1c7" stroke-width="1"/><ellipse cx="100" cy="138" rx="34" ry="21" fill="#cfbaa0" opacity=".35" stroke="none"/><ellipse cx="100" cy="135" rx="34" ry="21" fill="url(#cream)" stroke="#c4ae8e" stroke-width="1.8"/><ellipse cx="100" cy="135" rx="27" ry="15" fill="#fff4df" stroke="#d6c1a4" stroke-width="1.3"/><path d="M75 131q9-12 30-10" fill="none" stroke="#fffdf1" stroke-width="2"/><g stroke="#a8a58f" stroke-width="1.4"><path d="m62 119-4 28q-3 4-4 0l4-27m-1-8-1 9q2 6 7 1l1-9m-4 0-1 9" fill="url(#metal)"/><path d="m144 118-4 31q-1 3-3 0l2-14q-2-5 0-16 2-6 5-1Z" fill="url(#metal)"/></g><path d="M193 119q17-8 14 6-2 10-15 8" fill="none" stroke="#8f9e90" stroke-width="4"/><path d="M193 119q17-8 14 6-2 10-15 8" fill="none" stroke="#e1e4d6" stroke-width="1.8"/><path d="m174 111 23 1-1 25q-12 10-23-1Z" fill="url(#metal)" stroke="#93a195" stroke-width="1.6"/><ellipse cx="185" cy="112" rx="12" ry="5.4" fill="#84958b" stroke="#f0f0e3" stroke-width="2"/><path d="m176 118 1 13" stroke="#eef0e0" stroke-width="2"/><path d="m145 122 27 1 5 25h-34Z" fill="#dbc69f" stroke="#ba9c75" stroke-width="1.7"/><rect x="143" y="128" width="33" height="27" rx="2.8" fill="url(#cream)" stroke="#bd9b6e" stroke-width="1.8"/><path d="M146 131h26" stroke="#fffdf0" stroke-width="1.3"/><path d="M108 89q27-12 54 0l8 32H100Z" fill="url(#cat)"/><path d="M106 94q29 13 58 0l-8 18q-22 7-43-1Z" fill="url(#mint)" stroke="#8d9460" stroke-width="1.7"/><path d="m131 109 10 11 6-13" fill="url(#mint)" stroke="#8d9460" stroke-width="1.7"/><path d="M96 54 94 19q0-9 9-3l24 20h17l25-20q8-6 8 3l-4 37" fill="url(#cat)" stroke="#966b50" stroke-width="2.7"/><path d="m100 26 3 25 16-11ZM168 25l-19 17 17 7Z" fill="#eaa38a" stroke="none"/><path d="M94 61q8-27 41-27t41 27q13 38-41 41T94 61Z" fill="url(#cat)" stroke="#966b50" stroke-width="2.6"/><path d="m126 37 4 14m6-15v15m9-13-4 14" stroke="#a47b5e" stroke-width="4"/><ellipse cx="135" cy="84" rx="22" ry="15" fill="#fff2da" stroke="none"/><path d="m92 75 12 3m-12 5 12-1m61-4 13-3m-13 7 13 1" stroke="#966b50" stroke-width="1.6"/><ellipse cx="105" cy="81" rx="7.4" ry="5.1" fill="#f6a58d" opacity=".92" stroke="none"/><ellipse cx="165" cy="81" rx="7.4" ry="5.1" fill="#f6a58d" opacity=".92" stroke="none"/><g transform="translate(117 70) scale(1)"><ellipse rx="5.1" ry="6.5" fill="url(#ink)" stroke="#55432d" stroke-width=".75"/><ellipse cx="-1.2" cy="-2.6" rx="1.7" ry="2" fill="#fffdf2" stroke="none"/><circle cx="1.8" cy="2.1" r=".7" fill="#cda578" stroke="none"/></g><g transform="translate(153 70) scale(1)"><ellipse rx="5.1" ry="6.5" fill="url(#ink)" stroke="#55432d" stroke-width=".75"/><ellipse cx="-1.2" cy="-2.6" rx="1.7" ry="2" fill="#fffdf2" stroke="none"/><circle cx="1.8" cy="2.1" r=".7" fill="#cda578" stroke="none"/></g><path d="M131 78q4-3 8 0l-4 4Z" fill="#cf886c" stroke="none"/><path d="M135 81v3q-4 6-8 1M135 84q4 6 8 1" fill="none" stroke="#75503b" stroke-width="1.9"/></g></svg>